<?xml version="1.0" standalone="no"?>
<!DOCTYPE svg PUBLIC "-//W3C//DTD SVG 20010904//EN"
 "http://www.w3.org/TR/2001/REC-SVG-20010904/DTD/svg10.dtd">
<svg version="1.0" xmlns="http://www.w3.org/2000/svg"
 width="1965.000000pt" height="1965.000000pt" viewBox="0 0 1965.000000 1965.000000"
 preserveAspectRatio="xMidYMid meet">

<g transform="translate(0.000000,1965.000000) scale(0.100000,-0.100000)"
fill="#000000" stroke="none">
<path d="M9720 18123 c-68 -34 177 209 -3873 -3838 -3027 -3024 -3235 -3234
-3265 -3296 -27 -57 -32 -77 -32 -141 0 -67 4 -84 36 -148 35 -68 79 -115 710
-746 371 -371 674 -680 674 -688 0 -7 -305 -319 -678 -692 -623 -624 -681
-684 -710 -745 -59 -122 -40 -247 53 -364 36 -45 6955 -6962 6995 -6993 14
-11 50 -32 80 -47 48 -25 67 -29 145 -29 163 -2 77 -76 1200 1045 6004 5993
6032 6022 6070 6100 30 64 35 83 35 149 0 63 -5 86 -31 140 -28 60 -86 121
-711 746 -374 375 -679 687 -676 694 2 6 307 316 679 688 626 628 677 682 707
744 27 58 32 79 32 145 0 66 -5 88 -30 143 -29 61 -232 266 -3531 3565 -2452
2452 -3517 3511 -3557 3536 -84 52 -105 59 -190 59 -63 -1 -87 -6 -132 -27z
m3439 -3971 c1810 -1808 3291 -3295 3291 -3302 0 -23 -6574 -6593 -6593 -6589
-18 4 -5017 4995 -5017 5008 0 13 4998 5005 5014 5009 8 2 789 -771 1736
-1717 947 -947 1727 -1721 1733 -1721 6 0 47 35 91 78 45 42 136 129 204 192
67 63 122 121 122 130 0 20 -3630 3647 -3695 3691 -66 46 -115 62 -192 62 -70
0 -104 -12 -178 -58 -30 -19 -1117 -1098 -2654 -2634 -1431 -1430 -2608 -2601
-2613 -2601 -17 0 -1149 1134 -1146 1149 4 18 6579 6591 6594 6591 6 0 1492
-1480 3303 -3288z m-6131 -7927 c1426 -1424 2611 -2601 2635 -2615 110 -68
210 -79 324 -33 84 33 -203 -249 2855 2806 1339 1338 2443 2439 2452 2446 16
13 71 -39 587 -555 313 -313 569 -576 569 -585 0 -22 -6577 -6591 -6595 -6587
-17 4 -6595 6575 -6595 6589 0 6 257 267 571 580 503 502 573 568 587 557 10
-7 1184 -1178 2610 -2603z"/>
</g>
</svg>
